<svg xmlns="http://www.w3.org/2000/svg" version="1.1" xmlns:xlink="http://www.w3.org/1999/xlink" xmlns:svgjs="http://svgjs.com/svgjs" width="1440" height="560" preserveAspectRatio="none" viewBox="0 0 1440 560"><g mask="url(&quot;#SvgjsMask1017&quot;)" fill="none"><rect width="1440" height="560" x="0" y="0" fill="url(#SvgjsLinearGradient1018)"></rect><path d="M111.35 89.81L183.23 131.31L183.23 214.31L111.35 255.81L39.47 214.31L39.47 131.31zM327 -34.69L398.88 6.81L398.88 89.81L327 131.31L255.12 89.81L255.12 6.81zM614.53 214.31L686.41 255.81L686.41 338.81L614.53 380.31L542.65 338.81L542.65 255.81zM973.94 338.81L1045.82 380.31L1045.82 463.31L973.94 504.81L902.06 463.31L902.06 380.31zM1045.82 -34.69L1117.7 6.81L1117.7 89.81L1045.82 131.31L973.94 89.81L973.94 6.81zM1045.82 214.31L1117.7 255.81L1117.7 338.81L1045.82 380.31L973.94 338.81L973.94 255.81zM1261.47 89.81L1333.35 131.31L1333.35 214.31L1261.47 255.81L1189.58 214.31L1189.58 131.31zM1261.47 338.81L1333.35 380.31L1333.35 463.31L1261.47 504.81L1189.58 463.31L1189.58 380.31zM1333.35 -34.69L1405.23 6.81L1405.23 89.81L1333.35 131.31L1261.47 89.81L1261.47 6.81zM1549 89.81L1620.88 131.31L1620.88 214.31L1549 255.81L1477.11 214.31L1477.11 131.31z" stroke="#03305d" stroke-width="2"></path><path d="M103.05 89.81 a8.3 8.3 0 1 0 16.6 0 a8.3 8.3 0 1 0 -16.6 0zM174.93 131.31 a8.3 8.3 0 1 0 16.6 0 a8.3 8.3 0 1 0 -16.6 0zM174.93 214.31 a8.3 8.3 0 1 0 16.6 0 a8.3 8.3 0 1 0 -16.6 0zM103.05 255.81 a8.3 8.3 0 1 0 16.6 0 a8.3 8.3 0 1 0 -16.6 0zM31.17 214.31 a8.3 8.3 0 1 0 16.6 0 a8.3 8.3 0 1 0 -16.6 0zM31.17 131.31 a8.3 8.3 0 1 0 16.6 0 a8.3 8.3 0 1 0 -16.6 0zM318.7 -34.69 a8.3 8.3 0 1 0 16.6 0 a8.3 8.3 0 1 0 -16.6 0zM390.58 6.81 a8.3 8.3 0 1 0 16.6 0 a8.3 8.3 0 1 0 -16.6 0zM390.58 89.81 a8.3 8.3 0 1 0 16.6 0 a8.3 8.3 0 1 0 -16.6 0zM318.7 131.31 a8.3 8.3 0 1 0 16.6 0 a8.3 8.3 0 1 0 -16.6 0zM246.82 89.81 a8.3 8.3 0 1 0 16.6 0 a8.3 8.3 0 1 0 -16.6 0zM246.82 6.81 a8.3 8.3 0 1 0 16.6 0 a8.3 8.3 0 1 0 -16.6 0zM606.23 214.31 a8.3 8.3 0 1 0 16.6 0 a8.3 8.3 0 1 0 -16.6 0zM678.11 255.81 a8.3 8.3 0 1 0 16.6 0 a8.3 8.3 0 1 0 -16.6 0zM678.11 338.81 a8.3 8.3 0 1 0 16.6 0 a8.3 8.3 0 1 0 -16.6 0zM606.23 380.31 a8.3 8.3 0 1 0 16.6 0 a8.3 8.3 0 1 0 -16.6 0zM534.35 338.81 a8.3 8.3 0 1 0 16.6 0 a8.3 8.3 0 1 0 -16.6 0zM534.35 255.81 a8.3 8.3 0 1 0 16.6 0 a8.3 8.3 0 1 0 -16.6 0zM965.64 338.81 a8.3 8.3 0 1 0 16.6 0 a8.3 8.3 0 1 0 -16.6 0zM1037.52 380.31 a8.3 8.3 0 1 0 16.6 0 a8.3 8.3 0 1 0 -16.6 0zM1037.52 463.31 a8.3 8.3 0 1 0 16.6 0 a8.3 8.3 0 1 0 -16.6 0zM965.64 504.81 a8.3 8.3 0 1 0 16.6 0 a8.3 8.3 0 1 0 -16.6 0zM893.76 463.31 a8.3 8.3 0 1 0 16.6 0 a8.3 8.3 0 1 0 -16.6 0zM893.76 380.31 a8.3 8.3 0 1 0 16.6 0 a8.3 8.3 0 1 0 -16.6 0zM1037.52 -34.69 a8.3 8.3 0 1 0 16.6 0 a8.3 8.3 0 1 0 -16.6 0zM1109.4 6.81 a8.3 8.3 0 1 0 16.6 0 a8.3 8.3 0 1 0 -16.6 0zM1109.4 89.81 a8.3 8.3 0 1 0 16.6 0 a8.3 8.3 0 1 0 -16.6 0zM1037.52 131.31 a8.3 8.3 0 1 0 16.6 0 a8.3 8.3 0 1 0 -16.6 0zM965.64 89.81 a8.3 8.3 0 1 0 16.6 0 a8.3 8.3 0 1 0 -16.6 0zM965.64 6.81 a8.3 8.3 0 1 0 16.6 0 a8.3 8.3 0 1 0 -16.6 0zM1037.52 214.31 a8.3 8.3 0 1 0 16.6 0 a8.3 8.3 0 1 0 -16.6 0zM1109.4 255.81 a8.3 8.3 0 1 0 16.6 0 a8.3 8.3 0 1 0 -16.6 0zM1109.4 338.81 a8.3 8.3 0 1 0 16.6 0 a8.3 8.3 0 1 0 -16.6 0zM965.64 255.81 a8.3 8.3 0 1 0 16.6 0 a8.3 8.3 0 1 0 -16.6 0zM1253.17 89.81 a8.3 8.3 0 1 0 16.6 0 a8.3 8.3 0 1 0 -16.6 0zM1325.05 131.31 a8.3 8.3 0 1 0 16.6 0 a8.3 8.3 0 1 0 -16.6 0zM1325.05 214.31 a8.3 8.3 0 1 0 16.6 0 a8.3 8.3 0 1 0 -16.6 0zM1253.17 255.81 a8.3 8.3 0 1 0 16.6 0 a8.3 8.3 0 1 0 -16.6 0zM1181.28 214.31 a8.3 8.3 0 1 0 16.6 0 a8.3 8.3 0 1 0 -16.6 0zM1181.28 131.31 a8.3 8.3 0 1 0 16.6 0 a8.3 8.3 0 1 0 -16.6 0zM1253.17 338.81 a8.3 8.3 0 1 0 16.6 0 a8.3 8.3 0 1 0 -16.6 0zM1325.05 380.31 a8.3 8.3 0 1 0 16.6 0 a8.3 8.3 0 1 0 -16.6 0zM1325.05 463.31 a8.3 8.3 0 1 0 16.6 0 a8.3 8.3 0 1 0 -16.6 0zM1253.17 504.81 a8.3 8.3 0 1 0 16.6 0 a8.3 8.3 0 1 0 -16.6 0zM1181.28 463.31 a8.3 8.3 0 1 0 16.6 0 a8.3 8.3 0 1 0 -16.6 0zM1181.28 380.31 a8.3 8.3 0 1 0 16.6 0 a8.3 8.3 0 1 0 -16.6 0zM1325.05 -34.69 a8.3 8.3 0 1 0 16.6 0 a8.3 8.3 0 1 0 -16.6 0zM1396.93 6.81 a8.3 8.3 0 1 0 16.6 0 a8.3 8.3 0 1 0 -16.6 0zM1396.93 89.81 a8.3 8.3 0 1 0 16.6 0 a8.3 8.3 0 1 0 -16.6 0zM1253.17 6.81 a8.3 8.3 0 1 0 16.6 0 a8.3 8.3 0 1 0 -16.6 0zM1540.7 89.81 a8.3 8.3 0 1 0 16.6 0 a8.3 8.3 0 1 0 -16.6 0zM1612.58 131.31 a8.3 8.3 0 1 0 16.6 0 a8.3 8.3 0 1 0 -16.6 0zM1612.58 214.31 a8.3 8.3 0 1 0 16.6 0 a8.3 8.3 0 1 0 -16.6 0zM1540.7 255.81 a8.3 8.3 0 1 0 16.6 0 a8.3 8.3 0 1 0 -16.6 0zM1468.81 214.31 a8.3 8.3 0 1 0 16.6 0 a8.3 8.3 0 1 0 -16.6 0zM1468.81 131.31 a8.3 8.3 0 1 0 16.6 0 a8.3 8.3 0 1 0 -16.6 0z" fill="#03305d"></path><path d="M12.34 130.5L55.64 155.5L55.64 205.5L12.34 230.5L-30.96 205.5L-30.96 155.5zM98.95 -19.5L142.25 5.5L142.25 55.5L98.95 80.5L55.64 55.5L55.64 5.5zM98.95 430.5L142.25 455.5L142.25 505.5L98.95 530.5L55.64 505.5L55.64 455.5zM185.55 280.5L228.85 305.5L228.85 355.5L185.55 380.5L142.25 355.5L142.25 305.5zM228.85 505.5L272.15 530.5L272.15 580.5L228.85 605.5L185.55 580.5L185.55 530.5zM272.15 -19.5L315.46 5.5L315.46 55.5L272.15 80.5L228.85 55.5L228.85 5.5zM272.15 130.5L315.46 155.5L315.46 205.5L272.15 230.5L228.85 205.5L228.85 155.5zM315.46 355.5L358.76 380.5L358.76 430.5L315.46 455.5L272.15 430.5L272.15 380.5zM358.76 430.5L402.06 455.5L402.06 505.5L358.76 530.5L315.46 505.5L315.46 455.5zM445.37 130.5L488.67 155.5L488.67 205.5L445.37 230.5L402.06 205.5L402.06 155.5zM488.67 205.5L531.97 230.5L531.97 280.5L488.67 305.5L445.37 280.5L445.37 230.5zM488.67 355.5L531.97 380.5L531.97 430.5L488.67 455.5L445.37 430.5L445.37 380.5zM575.27 355.5L618.58 380.5L618.58 430.5L575.27 455.5L531.97 430.5L531.97 380.5zM661.88 205.5L705.18 230.5L705.18 280.5L661.88 305.5L618.58 280.5L618.58 230.5zM618.58 430.5L661.88 455.5L661.88 505.5L618.58 530.5L575.27 505.5L575.27 455.5zM748.48 55.5L791.79 80.5L791.79 130.5L748.48 155.5L705.18 130.5L705.18 80.5zM705.18 430.5L748.48 455.5L748.48 505.5L705.18 530.5L661.88 505.5L661.88 455.5zM791.79 -19.5L835.09 5.5L835.09 55.5L791.79 80.5L748.48 55.5L748.48 5.5zM835.09 355.5L878.39 380.5L878.39 430.5L835.09 455.5L791.79 430.5L791.79 380.5zM921.69 205.5L965 230.5L965 280.5L921.69 305.5L878.39 280.5L878.39 230.5zM878.39 430.5L921.69 455.5L921.69 505.5L878.39 530.5L835.09 505.5L835.09 455.5zM1008.3 505.5L1051.6 530.5L1051.6 580.5L1008.3 605.5L965 580.5L965 530.5zM1181.51 505.5L1224.81 530.5L1224.81 580.5L1181.51 605.5L1138.2 580.5L1138.2 530.5zM1268.11 205.5L1311.41 230.5L1311.41 280.5L1268.11 305.5L1224.81 280.5L1224.81 230.5zM1224.81 280.5L1268.11 305.5L1268.11 355.5L1224.81 380.5L1181.51 355.5L1181.51 305.5zM1311.41 130.5L1354.72 155.5L1354.72 205.5L1311.41 230.5L1268.11 205.5L1268.11 155.5zM1311.41 280.5L1354.72 305.5L1354.72 355.5L1311.41 380.5L1268.11 355.5L1268.11 305.5zM1398.02 -19.5L1441.32 5.5L1441.32 55.5L1398.02 80.5L1354.72 55.5L1354.72 5.5zM1441.32 505.5L1484.63 530.5L1484.63 580.5L1441.32 605.5L1398.02 580.5L1398.02 530.5z" stroke="rgba(150, 170, 255, 0.98)" stroke-width="2"></path></g><defs><mask id="SvgjsMask1017"><rect width="1440" height="560" fill="#ffffff"></rect></mask><linearGradient x1="15.28%" y1="-39.29%" x2="84.72%" y2="139.29%" gradientUnits="userSpaceOnUse" id="SvgjsLinearGradient1018"><stop stop-color="#0e2a47" offset="0"></stop><stop stop-color="#00459e" offset="1"></stop></linearGradient></defs></svg>