<?xml version="1.0" encoding="UTF-8" standalone="no"?>
<svg
   xmlns:dc="http://purl.org/dc/elements/1.1/"
   xmlns:cc="http://creativecommons.org/ns#"
   xmlns:rdf="http://www.w3.org/1999/02/22-rdf-syntax-ns#"
   xmlns:svg="http://www.w3.org/2000/svg"
   xmlns="http://www.w3.org/2000/svg"
   xmlns:sodipodi="http://sodipodi.sourceforge.net/DTD/sodipodi-0.dtd"
   xmlns:inkscape="http://www.inkscape.org/namespaces/inkscape"
   inkscape:version="1.0 (4035a4fb49, 2020-05-01)"
   sodipodi:docname="monkey-scratching-head.svg"
   id="svg8"
   version="1.1"
   viewBox="0 0 512 512">
  <metadata
     id="metadata14">
    <rdf:RDF>
      <cc:Work
         rdf:about="">
        <dc:format>image/svg+xml</dc:format>
        <dc:type
           rdf:resource="http://purl.org/dc/dcmitype/StillImage" />
      </cc:Work>
    </rdf:RDF>
  </metadata>
  <defs
     id="defs12" />
  <sodipodi:namedview
     inkscape:current-layer="svg8"
     inkscape:window-maximized="1"
     inkscape:window-y="-8"
     inkscape:window-x="1334"
     inkscape:cy="256"
     inkscape:cx="256"
     inkscape:zoom="1.0507812"
     showgrid="false"
     id="namedview10"
     inkscape:window-height="1057"
     inkscape:window-width="1858"
     inkscape:pageshadow="2"
     inkscape:pageopacity="0"
     guidetolerance="10"
     gridtolerance="10"
     objecttolerance="10"
     borderopacity="1"
     bordercolor="#666666"
     pagecolor="#ffffff" />
  <path
     id="path6"
     fill-rule="evenodd"
     d="m216.537 8.381-2.963 2.371 8.273 17.231c4.55 9.477 8.076 17.427 7.836 17.667-.24.24-13.364-2.522-29.166-6.137-35.919-8.219-32.458-7.972-35.121-2.513-2.519 5.164-2.658 4.921 4.604 8.019a4726.944 4726.944 0 0 1 16.312 7.024l10.811 4.676-7.706 3.66c-11.163 5.302-20.578 11.88-26.727 18.674-6.195 6.846-5.937 6.758-9.945 3.386C135.391 67.836 97.186 66.02 75 78.743c-27.894 15.997-45.077 57.829-40.076 97.562 5.749 45.669 26.736 71.041 61.637 74.514l6.842.681 1.161 8c1.473 10.156 6.5 28.208 10.883 39.077l3.392 8.412-6.17 5.837c-3.393 3.211-8.377 7.826-11.075 10.256-2.698 2.43-9.611 9.562-15.361 15.848-25.921 28.335-36.385 48.251-52.84 100.567-5.566 17.697-11.474 31.464-14.315 33.36-1.119.747-5.756 2.646-10.306 4.22L.5 479.94l-.28 11.906-.28 11.907 4.557-.851c10.902-2.037 27.129-9.351 34.492-15.546 5.144-4.328 9.158-14.032 16.488-39.856 7.826-27.569 21.345-51.09 43.204-75.167 13.185-14.524 13.44-11.725 1.223 13.435-19.301 39.745-20.443 44.021-19.505 72.982.945 29.207-.798 36.804-11.068 48.227l-4.579 5.093 10.857-.285 10.857-.285 2.28-4.138c4.116-7.469 4.543-13.344 2.702-37.173-2.239-28.975-1.794-34.365 4.185-50.689 5.405-14.756 22.03-47.916 31.712-63.254 3.262-5.168 3.524-5.187 6.63-.489 3.818 5.774 17.795 19.869 25.025 25.234 18.14 13.464 36.885 20.249 64.95 23.511 7.397.86 13.589 1.703 13.759 1.874.171.17.998 9.268 1.838 20.217 2.451 31.942 6.286 54.231 13.535 78.657l2.003 6.75h5.525c4.793 0 5.456-.232 5.004-1.75-3.746-12.587-6.839-47.225-6.987-78.25l-.127-26.5 12.5-.684c45.012-2.461 69.57-15.138 97.623-50.392l3.122-3.924 2.878 4.779c1.582 2.629 5.301 8.704 8.264 13.5 2.964 4.797 9.545 17.046 14.625 27.221 19.717 39.487 19.671 39.303 19.282 77l-.294 28.5 2.909 5.25 2.909 5.25h22.934l-4.628-4.77c-12.009-12.38-12.826-15.269-13.643-48.23-.788-31.788.442-27.493-18.661-65.151-7.601-14.984-13.97-27.604-14.153-28.045-1.172-2.823 3.432-1.629 6.987 1.812 24.082 23.31 40.213 50.006 51.295 84.89 9.623 30.291 13.917 35.772 34.802 44.423 9.605 3.978 23.163 7.551 24.805 6.537.519-.321.944-5.862.944-12.312v-11.729l-2.75-.218c-4.585-.365-15.003-3.872-19.73-6.642-8.325-4.879-12.525-13.244-20.117-40.065C459 392.213 444.416 368.565 407.5 330.498c-12.1-12.478-22.15-23.095-22.334-23.595-.184-.499 1.022-4.844 2.679-9.655 3.361-9.755 6.019-20.117 8.761-34.148 2.003-10.252 3.119-12.1 7.305-12.1 4.875 0 18.116-3.874 25.683-7.513 14.72-7.08 23.562-18.544 30.369-39.372 18.961-58.024-2.981-118.394-47.676-131.176-19.686-5.63-46.344-1.975-61.555 8.439l-6.267 4.29-4.266-4.78C328.994 68.335 312.93 58.43 295 53.02c-5.775-1.742-11.112-3.365-11.86-3.605-1.583-.508.021-2.774 12.692-17.915 11.859-14.172 12.176-15.376 5.03-19.071-2.764-1.429-2.883-1.354-17.073 10.757l-21.096 18.006C256.931 46.109 255.289 47 251.994 47c-4.655 0-4.239.506-19.563-23.75-5.994-9.488-11.356-17.248-11.915-17.245-.559.003-2.349 1.072-3.979 2.376M198.921 80.69c-9.649 8.717-13.296 21.517-13.337 46.81-.034 20.483 2.508 33.172 9.809 48.975 1.993 4.313 3.443 8.022 3.223 8.243-.221.22-2.812-.271-5.759-1.091-27.376-7.622-53.905 9.426-60.823 39.086-4.619 19.804 2.263 48.869 15.063 63.614l4.19 4.827 5.633-10.827c6.995-13.445 22.274-35.466 23.652-34.088.164.163-1.017 5.013-2.624 10.776-5.534 19.857-7.78 39.597-9.303 81.765-.364 10.08-.234 11.226 1.224 10.774 4.944-1.53 25.793-5.599 27.408-5.349 1.411.219.072 1.679-5.225 5.697-3.917 2.972-7.327 5.734-7.578 6.139-.25.405 5.953 2.024 13.786 3.598 22.629 4.546 54.303 3.371 83.74-3.107 3.575-.786 13.443-2.584 21.93-3.994 8.486-1.41 15.637-2.772 15.892-3.027.254-.254-1.661-2.948-4.257-5.987-2.596-3.038-4.285-5.524-3.753-5.524.993 0 15.913 2.649 19.938 3.54 2.22.491 2.25.36 2.246-9.771-.009-21.365-3.616-57.988-7.34-74.519-1.27-5.637-2.05-10.233-1.733-10.212 1.573.103 11.628 15.887 20.599 32.333l5.93 10.871 3.024-3.503c4.241-4.914 10.898-17.792 14.028-27.137 9.682-28.911-2.32-61.661-27.004-73.691-6.87-3.348-7.242-3.411-20-3.411-7.624 0-14.344.495-16.25 1.198-3.884 1.432-3.938 1.105-.873-5.261 8.787-18.249 14.193-48.94 11.623-65.975-5.582-36.985-24.343-46.188-47.32-23.211-11.219 11.219-14.173 20.601-15.331 48.7l-.65 15.77 3.9.723c23.882 4.425 42.024 22.18 48.503 47.466 1.044 4.075 1.885 8.8 1.869 10.5l-.03 3.09-2.72-3.1c-1.497-1.705-5.421-6.608-8.721-10.896-10.566-13.729-18.519-20.979-27.952-25.481-10.03-4.787-10.548-4.846-10.548-1.197 0 9.121-12.836 9.246-14.656.143-.758-3.787-1.278-3.74-8.691.781-6.936 4.23-20.84 17.678-31.018 30-6.586 7.974-9.34 10.145-8.243 6.5.289-.963 1.269-5.125 2.177-9.25 5.382-24.449 24.61-43.993 47.46-48.243l6.267-1.165-.651-15.046c-1.112-25.67-5.231-37.784-16.829-49.491-12.259-12.375-25.766-15.708-33.895-8.365m-95.026 7.684C85.256 92.386 65.868 114.616 61.485 137c-2.532 12.932-3.051 35.122-1.052 44.976C67.247 215.564 77.802 230 95.548 230c6.092 0 6.757-.668 7.955-8 2.381-14.563 18.348-38.458 34.253-51.26 3.178-2.558 3.313-4.882.506-8.693-.184-.249-7.63 6.764-16.548 15.584-20.796 20.568-21.811 21.37-27.041 21.365-12.336-.011-19.316-13.861-18.393-36.496 1.813-44.41 31.406-68.676 55.327-45.367l4.106 4.002 2.31-5.818c1.271-3.199 3.695-8.517 5.386-11.817 1.692-3.3 3.218-6.303 3.392-6.674.53-1.133-8.518-5.948-14.926-7.942-6.975-2.171-19.226-2.394-27.98-.51m267.605-.031c-3.093 1.032-16.065 7.114-17.212 8.071-.216.18 9.711 23.802 10.269 24.435.169.192 3.274-1.768 6.9-4.356 16.527-11.793 26.447-11.044 39.287 2.968 19.918 21.738 20.446 69.004.885 79.217-5.975 3.119-8.267 1.669-28.824-18.238-10.474-10.142-19.426-18.44-19.892-18.44-.467 0-1.483 1.209-2.257 2.687-1.395 2.663-1.306 2.786 9.558 13.196 17.967 17.217 27.653 32.528 28.556 45.14l.48 6.711 6.625.623c16.283 1.531 26.463-10.915 34.332-41.978 3.533-13.944 3.236-41.302-.585-53.83-9.136-29.956-27.819-46.244-54.122-47.183-6.573-.235-11.371.1-14 .977m-90.009 39.678c-5.767 2.153-7.859 11.5-4.17 18.634 3.1 5.993 11.178 6.149 14.216.273 2.353-4.55.996-17.928-1.819-17.928-.127 0-1.582-.388-3.234-.861-1.651-.474-3.898-.527-4.993-.118m-67.779 1.399c-5.342 4.052-3.84 17.301 2.337 20.606 8.003 4.283 16.256-10.807 10.617-19.413-1.964-2.997-9.643-3.705-12.954-1.193m20.788 79.106c-12.12 2.255-20.127 5.401-29.498 11.589-8.722 5.76-15.444 11.885-13.043 11.885.733 0 5.655 2.639 10.937 5.865 38.55 23.542 43.083 24.987 56.604 18.037 7.448-3.829 23.08-13.059 33.023-19.5 3.313-2.146 7.926-4.758 10.25-5.804 5.402-2.431 5.352-2.68-1.523-7.617-18.135-13.021-44.16-18.657-66.75-14.455M283 336.694c-13.397.789-55.055 4.459-60.5 5.331-3.3.528-8.25.995-11 1.038-2.75.043-5.9.502-7 1.022-2.906 1.371 36.556.3 56-1.52 8.8-.824 20.5-1.952 26-2.506 5.5-.554 12.813-1.019 16.25-1.033 6.229-.026 8.274-1.25 4-2.396-2.222-.595-13.053-.566-23.75.064m31 21.473c-60.531 18.751-95.606 20.117-132.806 5.17-12.756-5.125-15.747-4.532-9.944 1.972 9.346 10.474 66.838 19.385 101.876 15.79 19.91-2.042 44.484-7.347 49.688-10.726 2.228-1.447 10.186-12.797 10.186-14.528 0-1.726-9.797-.529-19 2.322M.385 492c0 6.875.16 9.688.355 6.25.196-3.437.196-9.062 0-12.5-.195-3.437-.355-.625-.355 6.25"
     stroke="#040404"
     fill="#040404" />
</svg>
