<svg xmlns="http://www.w3.org/2000/svg" version="1.1" xmlns:xlink="http://www.w3.org/1999/xlink" xmlns:svgjs="http://svgjs.com/svgjs" width="1440" height="560" preserveAspectRatio="none" viewBox="0 0 1440 560"><g mask="url(&quot;#SvgjsMask1002&quot;)" fill="none"><rect width="1440" height="560" x="0" y="0" fill="url(#SvgjsLinearGradient1003)"></rect><path d="M1440 0L884.83 0L1440 194.27z" fill="rgba(255, 255, 255, .1)"></path><path d="M884.83 0L1440 194.27L1440 321L550.45 0z" fill="rgba(255, 255, 255, .075)"></path><path d="M550.45 0L1440 321L1440 414.06L319.6 0z" fill="rgba(255, 255, 255, .05)"></path><path d="M319.60000000000014 0L1440 414.06L1440 490.94L284.65000000000015 0z" fill="rgba(255, 255, 255, .025)"></path><path d="M0 560L489.16 560L0 379.82z" fill="rgba(0, 0, 0, .1)"></path><path d="M0 379.82L489.16 560L559.99 560L0 314.73z" fill="rgba(0, 0, 0, .075)"></path><path d="M0 314.73L559.99 560L914.6500000000001 560L0 183.26000000000002z" fill="rgba(0, 0, 0, .05)"></path><path d="M0 183.26L914.6500000000001 560L966.6500000000001 560L0 181.63z" fill="rgba(0, 0, 0, .025)"></path></g><defs><mask id="SvgjsMask1002"><rect width="1440" height="560" fill="#ffffff"></rect></mask><linearGradient x1="15.28%" y1="-39.29%" x2="84.72%" y2="139.29%" gradientUnits="userSpaceOnUse" id="SvgjsLinearGradient1003"><stop stop-color="#0e2a47" offset="0"></stop><stop stop-color="#00459e" offset="1"></stop></linearGradient></defs></svg>